<svg width="46" height="48" viewBox="0 0 46 48" fill="none" xmlns="http://www.w3.org/2000/svg">
<path d="M27.7508 0H7.56682C6.62271 0.0024816 5.71804 0.34812 5.05045 0.961407C4.38286 1.57469 4.00661 2.40578 4.00391 3.27309V44.7269C4.0066 45.5938 4.38245 46.4244 5.04941 47.0377C5.71637 47.6509 6.62029 47.9968 7.56389 48H38.4395C39.3834 47.9972 40.2877 47.6514 40.955 47.0381C41.6222 46.4249 41.9983 45.594 42.001 44.7269V13.091L33.689 7.63587L27.7508 0Z" fill="#0F9D58"/>
<path d="M13.5 23.4551V39.267H32.4934V23.4551H13.5ZM21.8164 37.0916H15.8782V34.364H21.8164V37.0916ZM21.8164 32.7275H15.8782V29.9959H21.8164V32.7275ZM21.8164 28.3634H15.8782V25.6358H21.8164V28.3634ZM30.1284 37.097H24.1902V34.3694H30.1284V37.097ZM30.1284 32.7329H24.1902V29.9959H30.1284V32.7329ZM30.1284 28.3688H24.1902V25.6412H30.1284V28.3688Z" fill="#F1F1F1"/>
<path d="M28.793 12.1328L42.0003 24.2645V13.0908L28.793 12.1328Z" fill="url(#paint0_linear_2327_511)"/>
<path d="M27.75 0V9.81793C27.7498 10.2478 27.8418 10.6735 28.0208 11.0707C28.1998 11.4679 28.4622 11.8288 28.7931 12.1328C29.124 12.4367 29.5169 12.6778 29.9492 12.8422C30.3816 13.0067 30.845 13.0912 31.3129 13.091H42.0002L27.75 0Z" fill="#87CEAC"/>
<path d="M7.56291 0C6.6188 0.0024816 5.71413 0.34812 5.04654 0.961407C4.37894 1.57469 4.0027 2.40578 4 3.27309V3.54182C4.0027 2.6745 4.37894 1.84342 5.04654 1.23013C5.71413 0.616847 6.6188 0.271209 7.56291 0.268727H27.7469V0H7.56291Z" fill="white" fill-opacity="0.2"/>
<path d="M38.4371 47.7311H7.56291C6.6188 47.7286 5.71413 47.383 5.04654 46.7697C4.37894 46.1564 4.0027 45.3253 4 44.458V44.7267C4.0027 45.5941 4.37894 46.4251 5.04654 47.0384C5.71413 47.6517 6.6188 47.9973 7.56291 47.9998H38.4386C39.3824 47.997 40.2867 47.6512 40.954 47.0379C41.6213 46.4247 41.9973 45.5938 42 44.7267V44.458C41.9973 45.3253 41.6211 46.1564 40.9535 46.7697C40.2859 47.383 39.3812 47.7286 38.4371 47.7311Z" fill="#263238" fill-opacity="0.2"/>
<path d="M31.3129 13.0915C30.845 13.0916 30.3816 13.0071 29.9492 12.8427C29.5169 12.6782 29.124 12.4372 28.7931 12.1332C28.4622 11.8292 28.1998 11.4683 28.0208 11.0711C27.8418 10.6739 27.7498 10.2482 27.75 9.81836V10.0871C27.7498 10.517 27.8418 10.9427 28.0208 11.3399C28.1998 11.737 28.4622 12.0979 28.7931 12.4019C29.124 12.7059 29.5169 12.947 29.9492 13.1114C30.3816 13.2758 30.845 13.3604 31.3129 13.3602H42.0002V13.0915H31.3129Z" fill="#263238" fill-opacity="0.1"/>
<path d="M27.7508 0H7.56682C6.62271 0.0024816 5.71804 0.34812 5.05045 0.961407C4.38286 1.57469 4.00661 2.40578 4.00391 3.27309V44.7269C4.0066 45.5938 4.38245 46.4244 5.04941 47.0377C5.71637 47.6509 6.62029 47.9968 7.56389 48H38.4395C39.3834 47.9972 40.2877 47.6514 40.955 47.0381C41.6222 46.4249 41.9983 45.594 42.001 44.7269V13.091L27.7508 0Z" fill="url(#paint1_radial_2327_511)"/>
<defs>
<linearGradient id="paint0_linear_2327_511" x1="35.3862" y1="12.9444" x2="35.3862" y2="24.04" gradientUnits="userSpaceOnUse">
<stop stop-color="#263238" stop-opacity="0.2"/>
<stop offset="1" stop-color="#263238" stop-opacity="0.02"/>
</linearGradient>
<radialGradient id="paint1_radial_2327_511" cx="0" cy="0" r="1" gradientUnits="userSpaceOnUse" gradientTransform="translate(5.18808 1.74988) scale(61.2643 56.2809)">
<stop stop-color="white" stop-opacity="0.1"/>
<stop offset="1" stop-color="white" stop-opacity="0"/>
</radialGradient>
</defs>
</svg>
