<svg width="48" height="48" viewBox="0 0 48 48" fill="none" xmlns="http://www.w3.org/2000/svg">
<path d="M39.7435 9.42559C39.7105 9.18544 39.5003 9.05272 39.3265 9.03814C39.1531 9.02356 35.4827 8.75158 35.4827 8.75158C35.4827 8.75158 32.9336 6.22087 32.6539 5.94084C32.3739 5.6608 31.8272 5.74596 31.6151 5.80849C31.5836 5.8177 31.0581 5.97996 30.1884 6.24888C29.3368 3.79873 27.8342 1.54692 25.1903 1.54692C25.1174 1.54692 25.0422 1.54999 24.967 1.55421C24.2152 0.559879 23.2837 0.12793 22.4793 0.12793C16.3208 0.12793 13.3784 7.82668 12.4558 11.7392C10.0629 12.4807 8.36268 13.0078 8.14556 13.0761C6.80981 13.495 6.76761 13.5372 6.5923 14.7958C6.45995 15.7487 2.96484 42.7782 2.96484 42.7782L30.1995 47.881L44.9564 44.6886C44.9564 44.6886 39.7761 9.66573 39.7435 9.42559ZM28.6831 6.71459C27.9991 6.92634 27.2215 7.16687 26.3787 7.42772C26.3795 7.26546 26.3803 7.10549 26.3803 6.93094C26.3803 5.408 26.1689 4.18197 25.8298 3.20989C27.192 3.38098 28.0993 4.93078 28.6831 6.71459ZM24.14 3.51179C24.5186 4.46085 24.7649 5.82268 24.7649 7.66058C24.7649 7.75456 24.7641 7.84049 24.7633 7.92757C23.2646 8.39175 21.6361 8.89582 20.0038 9.40142C20.9203 5.8645 22.6381 4.15626 24.14 3.51179ZM22.3101 1.77977C22.576 1.77977 22.8437 1.86992 23.1 2.04638C21.1263 2.97511 19.0107 5.31439 18.1172 9.98566C16.8114 10.39 15.5351 10.7851 14.3551 11.1507C15.4016 7.58769 17.8867 1.77977 22.3101 1.77977Z" fill="#95BF46"/>
<path d="M39.3266 9.03775C39.1532 9.02317 35.4828 8.75119 35.4828 8.75119C35.4828 8.75119 32.9337 6.22049 32.654 5.94045C32.5493 5.8361 32.4081 5.78278 32.2604 5.75977L30.2012 47.8802L44.9565 44.6882C44.9565 44.6882 39.7762 9.66534 39.7436 9.4252C39.7106 9.18506 39.5004 9.05233 39.3266 9.03775Z" fill="#5E8E3E"/>
<path d="M25.1904 17.1917L23.371 22.6041C23.371 22.6041 21.7767 21.7532 19.8225 21.7532C16.9577 21.7532 16.8135 23.5512 16.8135 24.0043C16.8135 26.4763 23.2574 27.4234 23.2574 33.2137C23.2574 37.7691 20.368 40.7026 16.472 40.7026C11.7969 40.7026 9.40625 37.7929 9.40625 37.7929L10.658 33.6572C10.658 33.6572 13.1154 35.767 15.1892 35.767C16.5442 35.767 17.0954 34.7002 17.0954 33.9207C17.0954 30.696 11.8088 30.5522 11.8088 25.2537C11.8088 20.7942 15.0097 16.4785 21.4709 16.4785C23.9606 16.4785 25.1904 17.1917 25.1904 17.1917Z" fill="white"/>
</svg>
