<svg width="128" height="32" viewBox="0 0 128 32" fill="none" xmlns="http://www.w3.org/2000/svg">
<g clip-path="url(#clip0_2741_8129)">
<path d="M36.0801 24.4421C35.9701 18.0004 35.9401 12.6675 36.0001 8.44356C36.0001 8.23186 36.1501 8.07057 36.35 8.05041C36.7299 8.02016 37.1697 8 37.6796 8C38.1894 8 38.6293 8.02016 38.9892 8.05041C39.1891 8.07057 39.3391 8.24194 39.3491 8.45365C39.3791 11.2461 39.3791 13.3429 39.3691 14.724C40.1788 13.6353 41.2485 13.0909 42.5881 13.0909C44.1376 13.0909 45.3072 13.5748 46.087 14.5426C46.8668 15.5104 47.2666 16.8612 47.2966 18.6052C47.3266 20.0468 47.3166 21.9924 47.2766 24.4421C47.2766 24.6538 47.1167 24.8252 46.9067 24.8454C46.5169 24.8756 46.087 24.8857 45.6071 24.8857C45.1273 24.8857 44.6874 24.8756 44.2875 24.8454C44.0776 24.8353 43.9177 24.6538 43.9177 24.4421V18.7464C43.8777 16.8814 43.1479 15.9539 41.7383 15.9539C40.8286 15.9539 40.0588 16.3773 39.429 17.2241C39.429 20.319 39.419 22.7183 39.409 24.4421C39.409 24.6538 39.2491 24.8252 39.0492 24.8454C38.6493 24.8756 38.2094 24.8857 37.7496 24.8857C37.2797 24.8857 36.8498 24.8756 36.44 24.8454C36.24 24.8353 36.0801 24.6538 36.0801 24.4421Z" fill="#0B3966"/>
<path d="M49.3459 21.3572C49.3459 20.1173 49.8058 19.1697 50.7155 18.4942C51.6252 17.8289 52.8349 17.4861 54.3344 17.4861C55.2141 17.4861 56.1938 17.6273 57.2935 17.9095C57.2935 17.1232 57.0936 16.5385 56.6937 16.1655C56.2938 15.7925 55.584 15.6111 54.5743 15.6111C53.5647 15.6111 52.455 15.8732 51.2454 16.4075C51.0754 16.4881 50.8655 16.4276 50.7555 16.2663C50.4456 15.7724 50.1757 15.2582 49.9558 14.7239C49.8758 14.5324 49.9558 14.3005 50.1357 14.2098C51.5453 13.4638 53.1448 13.0908 54.9342 13.0908C55.684 13.0908 56.3738 13.1614 56.9936 13.3025C57.6234 13.4437 58.2032 13.6856 58.753 14.0183C59.3029 14.3509 59.7228 14.8348 60.0127 15.4599C60.3026 16.0849 60.4425 16.841 60.4125 17.718C60.4125 19.9257 60.3526 22.1738 60.2326 24.4622C60.2226 24.6638 60.0626 24.8352 59.8727 24.8453C59.4928 24.8755 59.1129 24.8856 58.7331 24.8856C58.2832 24.8856 57.8533 24.8755 57.4335 24.8453C57.2235 24.8352 57.0536 24.6336 57.0736 24.4118C57.1036 23.8573 57.1335 23.4339 57.1535 23.1416C56.3738 24.4622 55.1542 25.1275 53.4847 25.1275C52.2451 25.1275 51.2454 24.805 50.4856 24.1497C49.7258 23.4944 49.3459 22.5569 49.3459 21.3572ZM52.375 21.3976C52.375 21.8411 52.555 22.194 52.9049 22.4561C53.2547 22.7182 53.7446 22.8492 54.3644 22.8492C55.0842 22.8492 55.724 22.577 56.2838 22.0327C56.8436 21.4883 57.1735 20.8129 57.2535 19.9862C56.4738 19.8048 55.664 19.714 54.8143 19.714C54.0545 19.714 53.4547 19.8653 53.0248 20.1576C52.5849 20.4701 52.375 20.8734 52.375 21.3976Z" fill="#0B3966"/>
<path d="M62.9717 29.9765C62.8018 25.6114 62.7218 20.208 62.7518 13.7662C62.7518 13.5545 62.9017 13.3832 63.1017 13.363C63.4616 13.3328 63.8814 13.3126 64.3713 13.3126C64.8411 13.3126 65.271 13.3328 65.6809 13.363C65.8808 13.3832 66.0308 13.5545 66.0308 13.7662V15.2078C66.3207 14.6231 66.7806 14.1292 67.4104 13.7158C68.0402 13.3025 68.7999 13.0908 69.6797 13.0908C71.2892 13.0908 72.5988 13.6755 73.6085 14.8449C74.6181 16.0143 75.088 17.4861 75.038 19.2604C74.978 21.0951 74.4482 22.5266 73.4485 23.5751C72.4488 24.6134 71.1892 25.1376 69.6597 25.1376C68.8199 25.1376 68.0901 24.9562 67.4503 24.5932C66.8105 24.2303 66.3407 23.7666 66.0408 23.2021V29.9765C66.0408 30.1882 65.8808 30.3697 65.6709 30.3797C65.311 30.3898 64.9211 30.3999 64.4913 30.3999C64.0814 30.3999 63.6915 30.3898 63.3216 30.3596C63.1317 30.3495 62.9817 30.1781 62.9717 29.9765ZM66.9405 16.599C66.4007 17.1837 66.1208 18.0003 66.0908 19.0588C66.0608 20.1173 66.3107 20.9641 66.8205 21.6194C67.3404 22.2645 67.9902 22.5972 68.7599 22.6174C69.6097 22.6275 70.3095 22.3452 70.8493 21.7605C71.3991 21.1758 71.679 20.3391 71.709 19.2705C71.739 18.1817 71.4891 17.3349 70.9493 16.7099C70.4194 16.095 69.7296 15.7724 68.8999 15.7623C68.1401 15.732 67.4803 16.0143 66.9405 16.599Z" fill="#0B3966"/>
<path d="M77.3672 29.9765C77.1973 25.6114 77.1173 20.208 77.1473 13.7662C77.1473 13.5545 77.2973 13.3832 77.4972 13.363C77.8571 13.3328 78.2769 13.3126 78.7668 13.3126C79.2367 13.3126 79.6665 13.3328 80.0764 13.363C80.2763 13.3832 80.4263 13.5545 80.4263 13.7662V15.2078C80.7162 14.6231 81.1761 14.1292 81.8059 13.7158C82.4357 13.3025 83.1954 13.0908 84.0752 13.0908C85.6847 13.0908 86.9943 13.6755 88.004 14.8449C89.0136 16.0143 89.4835 17.4861 89.4335 19.2604C89.3735 21.0951 88.8437 22.5266 87.844 23.5751C86.8443 24.6134 85.5847 25.1376 84.0552 25.1376C83.2154 25.1376 82.4857 24.9562 81.8458 24.5932C81.206 24.2303 80.7362 23.7666 80.4363 23.2021V29.9765C80.4363 30.1882 80.2763 30.3697 80.0664 30.3797C79.7165 30.3898 79.3266 30.3999 78.8968 30.3999C78.4869 30.3999 78.097 30.3898 77.7271 30.3596C77.5372 30.3495 77.3772 30.1781 77.3672 29.9765ZM81.346 16.599C80.8062 17.1837 80.5263 18.0003 80.4963 19.0588C80.4663 20.1173 80.7162 20.9641 81.226 21.6194C81.7459 22.2645 82.3957 22.5972 83.1654 22.6174C84.0152 22.6275 84.715 22.3452 85.2548 21.7605C85.8046 21.1758 86.0845 20.3391 86.1145 19.2705C86.1445 18.1817 85.8946 17.3349 85.3548 16.7099C84.8249 16.095 84.1351 15.7724 83.3054 15.7623C82.5456 15.732 81.8858 16.0143 81.346 16.599Z" fill="#0B3966"/>
<path d="M94.6721 11.5485C94.3322 11.8611 93.9023 12.0224 93.3925 12.0224C92.8727 12.0224 92.4528 11.8611 92.1229 11.5485C91.793 11.236 91.623 10.8025 91.623 10.2481C91.623 9.69364 91.793 9.27024 92.1229 8.96781C92.4528 8.66538 92.8827 8.51416 93.3925 8.51416C93.9123 8.51416 94.3422 8.67546 94.6721 8.98797C95.012 9.30048 95.1819 9.72388 95.1819 10.2582C95.1819 10.8025 95.012 11.236 94.6721 11.5485ZM91.643 13.7563C91.643 13.5446 91.803 13.3631 92.0129 13.353C92.4128 13.3228 92.8627 13.3127 93.3525 13.3127C93.8424 13.3127 94.2922 13.3228 94.6921 13.353C94.902 13.3631 95.062 13.5345 95.062 13.7563C95.092 16.6395 95.052 20.198 94.942 24.4522C94.932 24.6639 94.7821 24.8353 94.5821 24.8454C94.2023 24.8756 93.7924 24.8857 93.3625 24.8857C92.9426 24.8857 92.5328 24.8756 92.1429 24.8454C91.943 24.8353 91.783 24.6539 91.783 24.4422C91.683 19.8755 91.643 16.3169 91.643 13.7563Z" fill="#0B3966"/>
<path d="M97.7212 8.44356C97.7212 8.23186 97.8811 8.0504 98.0911 8.04032C98.501 8.01008 98.9408 8 99.4307 8C99.9205 8 100.37 8.01008 100.77 8.04032C100.98 8.0504 101.14 8.23186 101.14 8.44356C101.16 12.3752 101.12 17.708 101.01 24.4522C101.01 24.6639 100.85 24.8353 100.65 24.8554C100.27 24.8857 99.8705 24.8958 99.4307 24.8958C99.0008 24.8958 98.6009 24.8857 98.211 24.8554C98.0111 24.8454 97.8512 24.6639 97.8512 24.4623C97.7612 19.4419 97.7212 14.1091 97.7212 8.44356Z" fill="#0B3966"/>
<path d="M109.338 25.1275C107.368 25.1275 105.859 24.5731 104.809 23.4642C103.759 22.3553 103.229 20.8935 103.229 19.0789C103.229 17.3248 103.769 15.8833 104.839 14.7643C105.909 13.6453 107.308 13.0908 109.038 13.0908C110.877 13.0908 112.277 13.605 113.236 14.6332C114.196 15.6615 114.726 16.8813 114.846 18.2926C114.886 18.8874 114.776 19.3612 114.496 19.714C114.226 20.0669 113.796 20.2383 113.226 20.2383L106.598 20.3491C106.838 21.7504 107.758 22.446 109.338 22.446C110.187 22.446 111.047 22.1738 111.907 21.6395C112.017 21.5689 112.147 21.5589 112.257 21.6093C112.877 21.8815 113.426 22.2746 113.916 22.7888C114.066 22.95 114.076 23.192 113.926 23.3533C113.866 23.4138 113.806 23.4843 113.736 23.5549C113.566 23.7263 113.286 23.9481 112.907 24.2102C112.527 24.4824 112.017 24.6941 111.397 24.8654C110.777 25.0469 110.087 25.1275 109.338 25.1275ZM106.618 18.1112L111.517 18.0406C111.287 16.5083 110.467 15.7421 109.058 15.7421C108.348 15.7421 107.788 15.9538 107.378 16.3873C106.958 16.8309 106.708 17.4055 106.618 18.1112Z" fill="#0B3966"/>
<path d="M122.454 25.1275C120.484 25.1275 118.975 24.5731 117.925 23.4642C116.875 22.3553 116.345 20.8935 116.345 19.0789C116.345 17.3248 116.885 15.8833 117.955 14.7643C119.025 13.6453 120.424 13.0908 122.154 13.0908C123.993 13.0908 125.393 13.605 126.352 14.6332C127.312 15.6615 127.842 16.8813 127.962 18.2926C128.002 18.8874 127.892 19.3612 127.612 19.714C127.342 20.0669 126.912 20.2383 126.342 20.2383L119.714 20.3491C119.954 21.7504 120.874 22.446 122.454 22.446C123.303 22.446 124.163 22.1738 125.023 21.6395C125.133 21.5689 125.263 21.5589 125.373 21.6093C125.992 21.8815 126.542 22.2746 127.032 22.7888C127.182 22.95 127.192 23.192 127.042 23.3533C126.982 23.4138 126.922 23.4843 126.852 23.5549C126.682 23.7263 126.402 23.9481 126.022 24.2102C125.643 24.4824 125.133 24.6941 124.513 24.8654C123.893 25.0469 123.203 25.1275 122.454 25.1275ZM119.734 18.1112L124.633 18.0406C124.403 16.5083 123.583 15.7421 122.174 15.7421C121.464 15.7421 120.904 15.9538 120.494 16.3873C120.074 16.8309 119.824 17.4055 119.734 18.1112Z" fill="#0B3966"/>
<path d="M16.5303 0C20.0003 0.09 23.4803 1.36 26.4703 3.98C28.9603 6.17 30.6503 8.85 31.4603 12.04C32.5503 16.28 32.0103 20.35 29.7003 24.08C29.0903 25.07 29.4603 25.93 29.5803 26.84C29.7703 28.21 30.0503 29.56 30.2603 30.93C30.3803 31.7 30.0503 31.97 29.3303 31.71C27.7303 31.13 26.1403 30.54 24.5503 29.92C24.2603 29.81 24.0303 29.8 23.7803 29.95C21.9203 31.03 19.9003 31.69 17.7703 31.9C15.6703 32.11 13.5803 31.97 11.5303 31.35C8.48029 30.44 5.92029 28.77 3.87029 26.37C1.75029 23.89 0.500287 21 0.110287 17.72C-0.269713 14.48 0.350287 11.44 1.86029 8.58C3.66029 5.17 6.37029 2.73 9.93029 1.22C11.9003 0.39 13.9303 0.02 16.5303 0ZM16.1003 27.63C19.9403 27.63 23.7803 25.67 26.0203 22.53C27.2503 20.8 28.0703 18.9 28.2503 16.76C28.3003 16.17 28.0703 15.73 27.5603 15.45C26.6303 14.94 25.5503 15.56 25.3403 16.74C24.9203 19.11 23.8403 21.08 21.9503 22.63C18.3603 25.56 12.9003 25.34 9.59029 22.08C8.10029 20.61 7.20029 18.83 6.87029 16.77C6.76029 16.12 6.38029 15.7 5.86029 15.4C5.37029 15.11 4.87029 15.27 4.44029 15.57C3.86029 15.97 3.88029 16.57 3.96029 17.17C4.82029 23.1 10.0903 27.64 16.1003 27.63Z" fill="#0B3966"/>
</g>
<defs>
<clipPath id="clip0_2741_8129">
<rect width="128" height="32" fill="white"/>
</clipPath>
</defs>
</svg>
