<svg width="32" height="32" viewBox="0 0 32 32" fill="none" xmlns="http://www.w3.org/2000/svg">
<path d="M16.5291 0.00439453C19.9991 0.0943945 23.4791 1.36439 26.4691 3.98439C28.9591 6.17439 30.6491 8.85439 31.4591 12.0444C32.5491 16.2844 32.0091 20.3544 29.6991 24.0844C29.0891 25.0744 29.4591 25.9344 29.5791 26.8444C29.7691 28.2144 30.0491 29.5644 30.2591 30.9344C30.3791 31.7044 30.0491 31.9744 29.3291 31.7144C27.7291 31.1344 26.1391 30.5444 24.5491 29.9244C24.2591 29.8144 24.0291 29.8044 23.7791 29.9544C21.9191 31.0344 19.8991 31.6944 17.7691 31.9044C15.6691 32.1144 13.5791 31.9744 11.5291 31.3544C8.47907 30.4444 5.91907 28.7744 3.86907 26.3744C1.74907 23.8944 0.499067 21.0044 0.109067 17.7244C-0.270933 14.4844 0.349067 11.4444 1.85907 8.58439C3.65907 5.17439 6.36907 2.73439 9.92907 1.22439C11.8991 0.394395 13.9291 0.0243945 16.5291 0.00439453ZM16.0991 27.6344C19.9391 27.6344 23.7791 25.6744 26.0191 22.5344C27.2491 20.8044 28.0691 18.9044 28.2491 16.7644C28.2991 16.1744 28.0691 15.7344 27.5591 15.4544C26.6291 14.9444 25.5491 15.5644 25.3391 16.7444C24.9191 19.1144 23.8391 21.0844 21.9491 22.6344C18.3591 25.5644 12.8991 25.3444 9.58907 22.0844C8.09907 20.6144 7.19907 18.8344 6.86907 16.7744C6.75907 16.1244 6.37907 15.7044 5.85907 15.4044C5.36907 15.1144 4.86907 15.2744 4.43907 15.5744C3.85907 15.9744 3.87907 16.5744 3.95907 17.1744C4.81907 23.1044 10.0891 27.6444 16.0991 27.6344Z" fill="white"/>
</svg>
