<svg width="240" height="360" viewBox="0 0 240 360" fill="none" xmlns="http://www.w3.org/2000/svg">
<path d="M108 350C167.647 350 216 341.493 216 331C216 320.507 167.647 312 108 312C48.3532 312 0 320.507 0 331C0 341.493 48.3532 350 108 350Z" fill="url(#paint0_radial_2490_3)" fill-opacity="0.5"/>
<path d="M154.556 45.0575C153.687 44.8108 153.196 43.9192 153.441 43.0655C160.866 16.3535 188.542 0.701931 215.142 8.17673C216.011 8.42336 216.502 9.31503 216.257 10.1687C216.011 11.0225 215.123 11.5347 214.273 11.2881C189.392 4.30653 163.492 18.9526 156.539 43.9192C156.294 44.7919 155.406 45.2851 154.556 45.0385V45.0575Z" fill="#86C0E0"/>
<path d="M214.707 19.4648C209.355 19.4648 205.016 15.1075 205.016 9.73242C205.016 4.35735 209.355 0 214.707 0C220.06 0 224.399 4.35735 224.399 9.73242C224.399 15.1075 220.06 19.4648 214.707 19.4648Z" fill="url(#paint1_linear_2490_3)"/>
<path d="M218.694 10.7379C216.91 10.7379 215.463 9.28546 215.463 7.49377C215.463 5.70208 216.91 4.24963 218.694 4.24963C220.478 4.24963 221.924 5.70208 221.924 7.49377C221.924 9.28546 220.478 10.7379 218.694 10.7379Z" fill="white"/>
<path d="M171.332 72.7749C168.876 81.7485 122.156 68.8099 124.612 59.8553C128.164 46.8977 141.502 39.2901 154.405 42.8568C167.308 46.4234 174.883 59.8173 171.332 72.7749Z" fill="url(#paint2_linear_2490_3)"/>
<path d="M206.395 158.735C194.55 201.914 161.262 196.716 118.265 184.821C75.2667 172.926 38.8244 158.83 50.6695 115.632C62.5147 72.4524 106.986 47.0874 149.984 58.9826C192.982 70.8778 218.24 115.537 206.395 158.716V158.735Z" fill="url(#paint3_linear_2490_3)"/>
<path d="M161.3 70.4794C167.969 73.2113 174.165 77.2332 179.587 82.1279C185.066 86.9846 189.676 92.8279 193.322 99.2213C196.949 105.615 199.575 112.615 200.954 119.824L201.748 125.269L202.144 130.752L202.012 136.216C201.842 138.037 201.653 139.839 201.408 141.642C201.332 142.192 200.822 142.571 200.274 142.514C199.783 142.458 199.405 142.021 199.405 141.528V141.49C199.273 134.433 198.479 127.489 196.722 120.773C195.003 114.076 192.472 107.607 189.128 101.574C185.803 95.5218 181.628 89.9821 176.848 84.9547C172.031 79.9651 166.533 75.6207 160.563 71.8833C160.186 71.6556 160.072 71.1623 160.318 70.8019C160.526 70.4604 160.941 70.3466 161.281 70.4794H161.3Z" fill="white"/>
<path d="M136.004 154.77C130.166 162.302 120.173 165.982 110.424 163.288C100.695 160.594 93.9886 152.304 92.7984 142.818C92.6095 141.243 93.5919 139.877 94.9521 139.403C93.5919 139.915 92.6284 141.319 92.8362 142.951C92.9307 143.653 93.0629 144.355 93.1952 145.057L134.493 156.477C134.984 155.965 135.437 155.434 135.891 154.865C136.911 153.575 136.798 151.867 135.891 150.729C136.816 151.829 136.968 153.499 136.004 154.77Z" fill="url(#paint4_linear_2490_3)"/>
<path d="M135.891 154.865C135.437 155.434 134.984 155.965 134.493 156.478L93.1952 145.057C93.044 144.374 92.9307 143.672 92.8362 142.951C92.6284 141.319 93.5919 139.896 94.9521 139.403C95.2544 139.308 95.5566 139.251 95.8778 139.213C96.199 139.213 96.539 139.232 96.8791 139.327L134.228 149.667C134.568 149.762 134.871 149.894 135.135 150.084C135.324 150.198 135.475 150.331 135.626 150.482C135.702 150.558 135.777 150.634 135.853 150.71C136.76 151.848 136.873 153.556 135.853 154.846L135.891 154.865Z" fill="white"/>
<path d="M177.245 133.484C176.206 137.24 173.769 140.219 170.633 142.002C167.516 143.786 163.699 144.374 159.959 143.33L78.0439 120.659C70.5627 118.591 66.1609 110.813 68.2201 103.3C70.2793 95.8255 75.1345 89.9063 81.3688 86.3586C87.5843 82.811 95.141 81.6537 102.584 83.7026L157.711 98.9558C172.579 103.073 181.326 118.534 177.226 133.465L177.245 133.484ZM110.84 107.872C112.975 100.113 108.422 92.0501 100.695 89.9253C92.9684 87.7815 84.9394 92.3537 82.8235 100.113C80.6887 107.872 85.2417 115.935 92.9684 118.06C100.695 120.185 108.724 115.632 110.84 107.872ZM166.363 123.239C168.498 115.48 163.945 107.417 156.218 105.292C148.492 103.148 140.463 107.721 138.347 115.48C136.212 123.239 140.765 131.302 148.492 133.427C156.218 135.571 164.247 130.999 166.363 123.239Z" fill="url(#paint5_linear_2490_3)"/>
<path d="M96.8223 115.347C90.5726 115.347 85.5061 110.259 85.5061 103.983C85.5061 97.707 90.5726 92.6192 96.8223 92.6192C103.072 92.6192 108.139 97.707 108.139 103.983C108.139 110.259 103.072 115.347 96.8223 115.347Z" fill="#0C3966"/>
<path d="M152.345 130.714C146.096 130.714 141.029 125.626 141.029 119.35C141.029 113.074 146.096 107.986 152.345 107.986C158.595 107.986 163.662 113.074 163.662 119.35C163.662 125.626 158.595 130.714 152.345 130.714Z" fill="#0C3966"/>
<path d="M150.286 126.863C152.327 127.091 154.291 126.749 155.954 125.744C157.635 124.795 158.901 123.258 159.789 121.418C159.864 121.247 160.072 121.152 160.261 121.228C160.412 121.285 160.488 121.456 160.469 121.589C160.337 122.708 159.921 123.79 159.26 124.738C158.599 125.668 157.711 126.465 156.709 127.034C154.688 128.153 152.156 128.381 150.116 127.451C149.946 127.375 149.871 127.185 149.946 127.015C150.003 126.882 150.154 126.806 150.286 126.825V126.863Z" fill="white"/>
<path d="M95.4998 105.14C92.8184 105.14 90.6446 102.958 90.6446 100.265C90.6446 97.572 92.8184 95.3891 95.4998 95.3891C98.1813 95.3891 100.355 97.572 100.355 100.265C100.355 102.958 98.1813 105.14 95.4998 105.14Z" fill="white"/>
<path d="M151.023 120.488C148.341 120.488 146.168 118.306 146.168 115.613C146.168 112.92 148.341 110.737 151.023 110.737C153.704 110.737 155.878 112.92 155.878 115.613C155.878 118.306 153.704 120.488 151.023 120.488Z" fill="white"/>
<path d="M94.7631 111.496C96.8034 111.724 98.7681 111.382 100.431 110.377C102.112 109.428 103.378 107.891 104.266 106.051C104.341 105.88 104.549 105.786 104.738 105.861C104.889 105.918 104.965 106.089 104.946 106.222C104.814 107.341 104.398 108.423 103.737 109.371C103.075 110.301 102.188 111.098 101.186 111.667C99.1649 112.786 96.6334 113.014 94.593 112.084C94.423 112.008 94.3474 111.818 94.423 111.648C94.4797 111.515 94.6308 111.439 94.7631 111.458V111.496Z" fill="white"/>
<path d="M10.6567 164.787L69.7881 188.881C84.0514 194.743 88.7366 212.728 79.3285 225.42C69.9203 238.112 51.4252 238.757 41.7337 226.729L1.7586 176.796C-3.24774 170.592 3.28883 161.771 10.6567 164.787Z" fill="url(#paint6_linear_2490_3)"/>
<path d="M165.267 226.786L69.1457 214.284C68.2578 214.17 67.4454 214.796 67.3321 215.688C67.2187 216.579 67.8422 217.395 68.7301 217.509L164.852 230.011C165.74 230.125 166.552 229.499 166.665 228.607C166.779 227.716 166.155 226.9 165.267 226.786Z" fill="#86C0E0"/>
<path d="M175.45 243.842L131.81 301.174C118.435 318.76 91.098 315.194 82.6345 294.78L54.9957 228.171C46.5322 207.72 63.2704 185.732 85.1282 188.577L156.369 197.855C178.227 200.7 188.844 226.255 175.45 243.861V243.842Z" fill="url(#paint7_linear_2490_3)"/>
<path d="M236.773 208.137L185.142 245.777C172.635 254.826 154.952 249.305 149.209 234.565C143.466 219.824 152.704 203.736 168.007 201.839L231.351 194.212C239.248 193.225 243.234 203.47 236.792 208.137H236.773Z" fill="url(#paint8_linear_2490_3)"/>
<defs>
<radialGradient id="paint0_radial_2490_3" cx="0" cy="0" r="1" gradientUnits="userSpaceOnUse" gradientTransform="translate(108.003 330.995) scale(81.5605 11.4789)">
<stop stop-color="#0C4782" stop-opacity="0.8"/>
<stop offset="1" stop-color="#1D5996" stop-opacity="0"/>
</radialGradient>
<linearGradient id="paint1_linear_2490_3" x1="206.106" y1="14.5914" x2="224.301" y2="4.39001" gradientUnits="userSpaceOnUse">
<stop offset="0.02" stop-color="#1D8EB5"/>
<stop offset="0.94" stop-color="#A7DBF2"/>
</linearGradient>
<linearGradient id="paint2_linear_2490_3" x1="133.252" y1="71.2007" x2="168.889" y2="51.0646" gradientUnits="userSpaceOnUse">
<stop offset="0.13" stop-color="#1D8EB5"/>
<stop offset="0.94" stop-color="#A7DBF2"/>
</linearGradient>
<linearGradient id="paint3_linear_2490_3" x1="62.033" y1="170.605" x2="204.863" y2="89.8247" gradientUnits="userSpaceOnUse">
<stop offset="0.02" stop-color="#1D8EB5"/>
<stop offset="0.94" stop-color="#A7DBF2"/>
</linearGradient>
<linearGradient id="paint4_linear_2490_3" x1="90.8604" y1="148.396" x2="134.542" y2="160.386" gradientUnits="userSpaceOnUse">
<stop offset="0.02" stop-color="#0C4782"/>
<stop offset="1" stop-color="#2E6CAA"/>
</linearGradient>
<linearGradient id="paint5_linear_2490_3" x1="67.4939" y1="113.512" x2="178.023" y2="113.564" gradientUnits="userSpaceOnUse">
<stop offset="0.02" stop-color="#0C4782"/>
<stop offset="1" stop-color="#2E6CAA"/>
</linearGradient>
<linearGradient id="paint6_linear_2490_3" x1="52.1089" y1="173.84" x2="25.9991" y2="224.45" gradientUnits="userSpaceOnUse">
<stop offset="0.17" stop-color="#A7DBF2"/>
<stop offset="0.94" stop-color="#1D8EB5"/>
</linearGradient>
<linearGradient id="paint7_linear_2490_3" x1="165.662" y1="195.843" x2="64.9548" y2="273.128" gradientUnits="userSpaceOnUse">
<stop offset="0.12" stop-color="#A7DBF2"/>
<stop offset="0.93" stop-color="#1D8EB5"/>
</linearGradient>
<linearGradient id="paint8_linear_2490_3" x1="237.888" y1="196.678" x2="88.4037" y2="261.65" gradientUnits="userSpaceOnUse">
<stop offset="0.06" stop-color="#A7DBF2"/>
<stop offset="0.75" stop-color="#1D8EB5"/>
</linearGradient>
</defs>
</svg>
